<svg xmlns="http://www.w3.org/2000/svg" fill="currentColor" viewBox="0 0 24 24" stroke-width="1.5" stroke="none" aria-hidden="true">
  <g fill="none">
    <path d="M0 0h24v24H0z"/>
    <path d="M0 0h24v24H0z"/>
  </g>
  <path d="M10 3h4c.55 0 1-.45 1-1s-.45-1-1-1h-4c-.55 0-1 .45-1 1s.45 1 1 1zM19.03 7.39l.75-.75a.993.993 0 000-1.4l-.01-.01a.993.993 0 00-1.4 0l-.75.75A8.962 8.962 0 0012 4c-4.8 0-8.88 3.96-9 8.76A8.998 8.998 0 0012 22a8.994 8.994 0 007.03-14.61zM13 13c0 .55-.45 1-1 1s-1-.45-1-1V9c0-.55.45-1 1-1s1 .45 1 1v4z"/>
</svg>
