<svg xmlns="http://www.w3.org/2000/svg" fill="none" viewBox="0 0 130 130" stroke-width="1.5" stroke="none" aria-hidden="true">
  <mask id="a" fill="#fff">
    <path fill-rule="evenodd" d="M49.975 104.882c-4.86 3.283-7.29 4.925-9.307 4.813a6 6 0 01-4.446-2.362C35 105.724 35 102.792 35 96.927V33.072c0-5.865 0-8.797 1.222-10.406a6 6 0 014.446-2.362c2.017-.111 4.447 1.53 9.307 4.814l47.252 31.927c3.943 2.664 5.915 3.996 6.604 5.67a5.997 5.997 0 010 4.57c-.689 1.673-2.661 3.005-6.604 5.67l-47.252 31.927zM126 21a4 4 0 014 4v80a4 4 0 01-4 4h-9.5a4 4 0 01-4-4V25a4 4 0 014-4h9.5z" clip-rule="evenodd"/>
  </mask>
  <path fill="#fff" fill-opacity=".6" fill-rule="evenodd" d="M49.975 104.882c-4.86 3.283-7.29 4.925-9.307 4.813a6 6 0 01-4.446-2.362C35 105.724 35 102.792 35 96.927V33.072c0-5.865 0-8.797 1.222-10.406a6 6 0 014.446-2.362c2.017-.111 4.447 1.53 9.307 4.814l47.252 31.927c3.943 2.664 5.915 3.996 6.604 5.67a5.997 5.997 0 010 4.57c-.689 1.673-2.661 3.005-6.604 5.67l-47.252 31.927zM126 21a4 4 0 014 4v80a4 4 0 01-4 4h-9.5a4 4 0 01-4-4V25a4 4 0 014-4h9.5z" clip-rule="evenodd"/>
  <path fill="url(#paint0_linear_696_871)" fill-opacity=".6" d="M103.831 62.715l-.925.38.925-.38zm-6.604 10.24l-.56-.83.56.83zm6.604-5.67l-.925-.381.925.38zm-67.61 40.048l.797-.605-.796.605zm13.754-2.451l.56.828-.56-.828zm-9.307 4.813l-.055.999.055-.999zM34 33.072v63.855h2V33.072h-2zm63.787 23.145L50.534 24.289l-1.12 1.657 47.254 31.928 1.12-1.657zM50.534 105.71l47.253-31.927-1.12-1.657-47.252 31.927 1.12 1.657zM131 25a5 5 0 00-5-5v2a3 3 0 013 3h2zm0 80V25h-2v80h2zm-5 5a5 5 0 005-5h-2a3 3 0 01-3 3v2zm-9.5 0h9.5v-2h-9.5v2zm-5-5a5 5 0 005 5v-2a3 3 0 01-3-3h-2zm0-80v80h2V25h-2zm5-5a5 5 0 00-5 5h2a3 3 0 013-3v-2zm9.5 0h-9.5v2h9.5v-2zM96.668 57.874c1.987 1.343 3.42 2.313 4.449 3.152 1.026.838 1.539 1.462 1.789 2.07l1.85-.762c-.439-1.065-1.257-1.945-2.374-2.857-1.115-.91-2.64-1.939-4.595-3.26l-1.12 1.657zm1.12 15.909c1.955-1.322 3.478-2.35 4.594-3.26 1.117-.913 1.935-1.792 2.374-2.858l-1.85-.761c-.25.608-.763 1.231-1.789 2.07-1.029.839-2.462 1.809-4.45 3.152l1.12 1.657zm5.118-10.687a4.993 4.993 0 010 3.808l1.85.761a7 7 0 000-5.33l-1.85.76zM34 96.927c0 2.913-.001 5.167.157 6.89.157 1.714.482 3.085 1.268 4.121l1.593-1.21c-.435-.572-.72-1.472-.87-3.093-.147-1.611-.148-3.756-.148-6.708h-2zm15.415 7.126c-2.447 1.653-4.224 2.853-5.641 3.632-1.427.785-2.332 1.052-3.05 1.012l-.11 1.997c1.298.072 2.616-.427 4.123-1.256 1.517-.834 3.384-2.097 5.797-3.728l-1.12-1.657zm-13.99 3.885a7.002 7.002 0 005.188 2.756l.11-1.997a5 5 0 01-3.705-1.969l-1.593 1.21zM36 33.072c0-2.952.001-5.097.148-6.708.15-1.621.435-2.52.87-3.093l-1.593-1.21c-.786 1.036-1.111 2.408-1.268 4.121-.158 1.724-.157 3.978-.157 6.89h2zm14.535-8.783c-2.414-1.63-4.28-2.893-5.797-3.727-1.508-.83-2.826-1.328-4.125-1.256l.11 1.997c.719-.04 1.624.226 3.05 1.011 1.418.78 3.196 1.98 5.642 3.632l1.12-1.657zm-13.517-1.018a5 5 0 013.706-1.968l-.11-1.997a7 7 0 00-5.189 2.755l1.593 1.21z" mask="url(#a)"/>
  <mask id="b" fill="#fff">
    <path fill-rule="evenodd" d="M9.36 108.676c-3.986 2.693-9.36-.162-9.36-4.971v-77.41c0-4.809 5.374-7.664 9.36-4.971l57.282 38.704c3.521 2.38 3.521 7.565 0 9.944L9.36 108.676zM91 21a4 4 0 014 4v80a4 4 0 01-4 4h-9.5a4 4 0 01-4-4V25a4 4 0 014-4H91z" clip-rule="evenodd"/>
  </mask>
  <path fill="#fff" fill-opacity=".8" fill-rule="evenodd" d="M9.36 108.676c-3.986 2.693-9.36-.162-9.36-4.971v-77.41c0-4.809 5.374-7.664 9.36-4.971l57.282 38.704c3.521 2.38 3.521 7.565 0 9.944L9.36 108.676zM91 21a4 4 0 014 4v80a4 4 0 01-4 4h-9.5a4 4 0 01-4-4V25a4 4 0 014-4H91z" clip-rule="evenodd"/>
  <path fill="url(#paint1_linear_696_871)" fill-opacity=".6" d="M66.642 69.972l-.56-.829.56.829zM9.36 108.676l-.56-.828.56.828zM-1 26.296v77.409h2v-77.41h-2zM67.202 59.2L9.919 20.495l-1.12 1.657 57.283 38.705 1.12-1.657zM9.919 109.505L67.202 70.8l-1.12-1.657L8.8 107.848l1.12 1.657zM96 25a5 5 0 00-5-5v2a3 3 0 013 3h2zm0 80V25h-2v80h2zm-5 5a5 5 0 005-5h-2a3 3 0 01-3 3v2zm-9.5 0H91v-2h-9.5v2zm-5-5a5 5 0 005 5v-2a3 3 0 01-3-3h-2zm0-80v80h2V25h-2zm5-5a5 5 0 00-5 5h2a3 3 0 013-3v-2zm9.5 0h-9.5v2H91v-2zM66.082 60.857c2.935 1.983 2.934 6.303 0 8.286l1.12 1.657c4.108-2.775 4.108-8.824 0-11.6l-1.12 1.657zM-1 103.705c0 5.61 6.27 8.941 10.919 5.8l-1.12-1.657C5.48 110.091 1 107.712 1 103.705h-2zm2-77.41c0-4.007 4.479-6.386 7.8-4.143l1.119-1.657C5.27 17.355-1 20.685-1 26.295h2z" mask="url(#b)"/>
  <mask id="c" fill="#fff">
    <path fill-rule="evenodd" d="M49.975 104.882c-4.86 3.283-7.29 4.925-9.307 4.813a6 6 0 01-4.446-2.362C35 105.724 35 102.792 35 96.927V33.072c0-5.865 0-8.797 1.222-10.406a6 6 0 014.446-2.362c2.017-.111 4.447 1.53 9.307 4.814l47.252 31.927c3.943 2.664 5.915 3.996 6.604 5.67a5.997 5.997 0 010 4.57c-.689 1.673-2.661 3.005-6.604 5.67l-47.252 31.927zM126 21a4 4 0 014 4v80a4 4 0 01-4 4h-9.5a4 4 0 01-4-4V25a4 4 0 014-4h9.5z" clip-rule="evenodd"/>
  </mask>
  <path fill="url(#paint2_linear_696_871)" fill-rule="evenodd" d="M49.975 104.882c-4.86 3.283-7.29 4.925-9.307 4.813a6 6 0 01-4.446-2.362C35 105.724 35 102.792 35 96.927V33.072c0-5.865 0-8.797 1.222-10.406a6 6 0 014.446-2.362c2.017-.111 4.447 1.53 9.307 4.814l47.252 31.927c3.943 2.664 5.915 3.996 6.604 5.67a5.997 5.997 0 010 4.57c-.689 1.673-2.661 3.005-6.604 5.67l-47.252 31.927zM126 21a4 4 0 014 4v80a4 4 0 01-4 4h-9.5a4 4 0 01-4-4V25a4 4 0 014-4h9.5z" clip-rule="evenodd"/>
  <path fill="url(#paint3_linear_696_871)" fill-opacity=".6" d="M103.831 62.715l-.925.38.925-.38zm-6.604 10.24l-.56-.83.56.83zm6.604-5.67l-.925-.381.925.38zm-67.61 40.048l.797-.605-.796.605zm13.754-2.451l.56.828-.56-.828zm-9.307 4.813l-.055.999.055-.999zM34 33.072v63.855h2V33.072h-2zm63.787 23.145L50.534 24.289l-1.12 1.657 47.254 31.928 1.12-1.657zM50.534 105.71l47.253-31.927-1.12-1.657-47.252 31.927 1.12 1.657zM131 25a5 5 0 00-5-5v2a3 3 0 013 3h2zm0 80V25h-2v80h2zm-5 5a5 5 0 005-5h-2a3 3 0 01-3 3v2zm-9.5 0h9.5v-2h-9.5v2zm-5-5a5 5 0 005 5v-2a3 3 0 01-3-3h-2zm0-80v80h2V25h-2zm5-5a5 5 0 00-5 5h2a3 3 0 013-3v-2zm9.5 0h-9.5v2h9.5v-2zM96.668 57.874c1.987 1.343 3.42 2.313 4.449 3.152 1.026.838 1.539 1.462 1.789 2.07l1.85-.762c-.439-1.065-1.257-1.945-2.374-2.857-1.115-.91-2.64-1.939-4.595-3.26l-1.12 1.657zm1.12 15.909c1.955-1.322 3.478-2.35 4.594-3.26 1.117-.913 1.935-1.792 2.374-2.858l-1.85-.761c-.25.608-.763 1.231-1.789 2.07-1.029.839-2.462 1.809-4.45 3.152l1.12 1.657zm5.118-10.687a4.993 4.993 0 010 3.808l1.85.761a7 7 0 000-5.33l-1.85.76zM34 96.927c0 2.913-.001 5.167.157 6.89.157 1.714.482 3.085 1.268 4.121l1.593-1.21c-.435-.572-.72-1.472-.87-3.093-.147-1.611-.148-3.756-.148-6.708h-2zm15.415 7.126c-2.447 1.653-4.224 2.853-5.641 3.632-1.427.785-2.332 1.052-3.05 1.012l-.11 1.997c1.298.072 2.616-.427 4.123-1.256 1.517-.834 3.384-2.097 5.797-3.728l-1.12-1.657zm-13.99 3.885a7.002 7.002 0 005.188 2.756l.11-1.997a5 5 0 01-3.705-1.969l-1.593 1.21zM36 33.072c0-2.952.001-5.097.148-6.708.15-1.621.435-2.52.87-3.093l-1.593-1.21c-.786 1.036-1.111 2.408-1.268 4.121-.158 1.724-.157 3.978-.157 6.89h2zm14.535-8.783c-2.414-1.63-4.28-2.893-5.797-3.727-1.508-.83-2.826-1.328-4.125-1.256l.11 1.997c.719-.04 1.624.226 3.05 1.011 1.418.78 3.196 1.98 5.642 3.632l1.12-1.657zm-13.517-1.018a5 5 0 013.706-1.968l-.11-1.997a7 7 0 00-5.189 2.755l1.593 1.21z" mask="url(#c)"/>
  <defs>
    <linearGradient id="paint0_linear_696_871" x1="28" x2="70.006" y1="13.725" y2="82.054" gradientUnits="userSpaceOnUse">
      <stop stop-color="#fff"/>
      <stop offset="1" stop-color="#fff" stop-opacity="0"/>
    </linearGradient>
    <linearGradient id="paint1_linear_696_871" x1="-7" x2="35.025" y1="13.709" y2="82.048" gradientUnits="userSpaceOnUse">
      <stop stop-color="#fff"/>
      <stop offset="1" stop-color="#fff" stop-opacity="0"/>
    </linearGradient>
    <linearGradient id="paint2_linear_696_871" x1="82.5" x2="82.5" y1="20.299" y2="109.701" gradientUnits="userSpaceOnUse">
      <stop stop-color="#fff" stop-opacity=".4"/>
      <stop offset=".5" stop-color="#fff" stop-opacity=".1"/>
      <stop offset="1" stop-color="#fff" stop-opacity="0"/>
    </linearGradient>
    <linearGradient id="paint3_linear_696_871" x1="28" x2="62.804" y1="13.725" y2="55.144" gradientUnits="userSpaceOnUse">
      <stop stop-color="#fff"/>
      <stop offset="1" stop-color="#fff" stop-opacity="0"/>
    </linearGradient>
  </defs>
</svg>
