<svg width="130" height="130" viewBox="0 0 130 130" fill="none" xmlns="http://www.w3.org/2000/svg">
	<mask id="path-1-inside-1_696_871" fill="white">
		<path fill-rule="evenodd" clip-rule="evenodd" d="M49.9746 104.882C45.1151 108.165 42.6854 109.807 40.6684 109.695C38.9115 109.598 37.2859 108.734 36.2217 107.333C35 105.724 35 102.792 35 96.9272V33.0722C35 27.2074 35 24.275 36.2217 22.6662C37.2859 21.2649 38.9115 20.4014 40.6684 20.3042C42.6854 20.1925 45.1151 21.8343 49.9747 25.1177L97.2274 57.0453C101.17 59.7094 103.142 61.0415 103.831 62.7151C104.434 64.1786 104.434 65.8209 103.831 67.2844C103.142 68.958 101.17 70.29 97.2274 72.9542L49.9746 104.882ZM126 20.9997C128.209 20.9997 130 22.7906 130 24.9997V105C130 107.209 128.209 109 126 109H116.5C114.291 109 112.5 107.209 112.5 105V24.9997C112.5 22.7906 114.291 20.9997 116.5 20.9997H126Z" />
	</mask>
	<path fill-rule="evenodd" clip-rule="evenodd" d="M49.9746 104.882C45.1151 108.165 42.6854 109.807 40.6684 109.695C38.9115 109.598 37.2859 108.734 36.2217 107.333C35 105.724 35 102.792 35 96.9272V33.0722C35 27.2074 35 24.275 36.2217 22.6662C37.2859 21.2649 38.9115 20.4014 40.6684 20.3042C42.6854 20.1925 45.1151 21.8343 49.9747 25.1177L97.2274 57.0453C101.17 59.7094 103.142 61.0415 103.831 62.7151C104.434 64.1786 104.434 65.8209 103.831 67.2844C103.142 68.958 101.17 70.29 97.2274 72.9542L49.9746 104.882ZM126 20.9997C128.209 20.9997 130 22.7906 130 24.9997V105C130 107.209 128.209 109 126 109H116.5C114.291 109 112.5 107.209 112.5 105V24.9997C112.5 22.7906 114.291 20.9997 116.5 20.9997H126Z" fill="white" fill-opacity="0.6" />
	<path d="M103.831 62.7151L102.906 63.0959L103.831 62.7151ZM97.2274 72.9542L96.6675 72.1256L97.2274 72.9542ZM103.831 67.2844L102.906 66.9036L103.831 67.2844ZM36.2217 107.333L37.0181 106.728L36.2217 107.333ZM49.9746 104.882L50.5345 105.71L49.9746 104.882ZM40.6684 109.695L40.6132 110.694L40.6684 109.695ZM34 33.0722V96.9272H36V33.0722H34ZM97.7873 56.2167L50.5345 24.2891L49.4148 25.9463L96.6675 57.8739L97.7873 56.2167ZM50.5345 105.71L97.7872 73.7828L96.6675 72.1256L49.4148 104.053L50.5345 105.71ZM131 24.9997C131 22.2383 128.761 19.9997 126 19.9997V21.9997C127.657 21.9997 129 23.3429 129 24.9997H131ZM131 105V24.9997H129V105H131ZM126 110C128.761 110 131 107.761 131 105H129C129 106.657 127.657 108 126 108V110ZM116.5 110H126V108H116.5V110ZM111.5 105C111.5 107.761 113.739 110 116.5 110V108C114.843 108 113.5 106.657 113.5 105H111.5ZM111.5 24.9997V105H113.5V24.9997H111.5ZM116.5 19.9997C113.739 19.9997 111.5 22.2383 111.5 24.9997H113.5C113.5 23.3429 114.843 21.9997 116.5 21.9997V19.9997ZM126 19.9997H116.5V21.9997H126V19.9997ZM96.6675 57.8739C98.6549 59.2166 100.088 60.1865 101.117 61.0262C102.143 61.8643 102.656 62.488 102.906 63.0959L104.756 62.3343C104.317 61.2686 103.499 60.3894 102.382 59.4771C101.267 58.5663 99.7429 57.538 97.7873 56.2167L96.6675 57.8739ZM97.7872 73.7828C99.7429 72.4614 101.266 71.4331 102.382 70.5224C103.499 69.61 104.317 68.7309 104.756 67.6651L102.906 66.9036C102.656 67.5115 102.143 68.1351 101.117 68.9732C100.088 69.813 98.6549 70.7828 96.6675 72.1256L97.7872 73.7828ZM102.906 63.0959C103.409 64.3154 103.409 65.684 102.906 66.9036L104.756 67.6651C105.459 65.9577 105.459 64.0417 104.756 62.3343L102.906 63.0959ZM34 96.9272C34 99.8398 33.999 102.094 34.1569 103.817C34.3138 105.531 34.6386 106.902 35.4253 107.938L37.0181 106.728C36.5831 106.156 36.2971 105.256 36.1485 103.635C36.001 102.024 36 99.8795 36 96.9272H34ZM49.4148 104.053C46.9685 105.706 45.1909 106.906 43.7736 107.685C42.347 108.47 41.4419 108.737 40.7237 108.697L40.6132 110.694C41.9119 110.766 43.2302 110.267 44.7375 109.438C46.2542 108.604 48.1212 107.341 50.5345 105.71L49.4148 104.053ZM35.4253 107.938C36.6669 109.573 38.5635 110.58 40.6132 110.694L40.7237 108.697C39.2596 108.616 37.9049 107.896 37.0181 106.728L35.4253 107.938ZM36 33.0722C36 30.1199 36.001 27.9752 36.1485 26.3644C36.2971 24.743 36.5831 23.8438 37.0181 23.271L35.4253 22.0615C34.6386 23.0974 34.3138 24.4688 34.1569 26.182C33.999 27.9057 34 30.1596 34 33.0722H36ZM50.5345 24.2891C48.1212 22.6585 46.2542 21.3958 44.7375 20.5616C43.2302 19.7325 41.912 19.2338 40.6132 19.3057L40.7237 21.3026C41.4419 21.2629 42.347 21.5293 43.7736 22.314C45.1909 23.0936 46.9686 24.2935 49.4148 25.9463L50.5345 24.2891ZM37.0181 23.271C37.9049 22.1033 39.2596 21.3837 40.7237 21.3026L40.6132 19.3057C38.5635 19.4191 36.6669 20.4266 35.4253 22.0615L37.0181 23.271Z" fill="url(#paint0_linear_696_871)" fill-opacity="0.6" mask="url(#path-1-inside-1_696_871)" />
	<mask id="path-3-inside-2_696_871" fill="white">
		<path fill-rule="evenodd" clip-rule="evenodd" d="M9.35914 108.676C5.3744 111.369 0 108.514 0 103.705V26.2953C0 21.4863 5.37442 18.6314 9.35916 21.3238L66.6421 60.0285C70.1633 62.4077 70.1633 67.5925 66.6421 69.9716L9.35914 108.676ZM91 21.0001C93.2091 21.0001 95 22.7909 95 25.0001V105C95 107.209 93.2091 109 91 109H81.5C79.2909 109 77.5 107.209 77.5 105V25.0001C77.5 22.7909 79.2909 21.0001 81.5 21.0001H91Z" />
	</mask>
	<path fill-rule="evenodd" clip-rule="evenodd" d="M9.35914 108.676C5.3744 111.369 0 108.514 0 103.705V26.2953C0 21.4863 5.37442 18.6314 9.35916 21.3238L66.6421 60.0285C70.1633 62.4077 70.1633 67.5925 66.6421 69.9716L9.35914 108.676ZM91 21.0001C93.2091 21.0001 95 22.7909 95 25.0001V105C95 107.209 93.2091 109 91 109H81.5C79.2909 109 77.5 107.209 77.5 105V25.0001C77.5 22.7909 79.2909 21.0001 81.5 21.0001H91Z" fill="white" fill-opacity="0.8" />
	<path d="M66.6421 69.9716L66.0823 69.143L66.6421 69.9716ZM9.35914 108.676L8.79928 107.848L9.35914 108.676ZM-1 26.2953V103.705H1V26.2953H-1ZM67.202 59.1999L9.91901 20.4952L8.7993 22.1524L66.0823 60.8571L67.202 59.1999ZM9.919 109.505L67.202 70.8002L66.0823 69.143L8.79928 107.848L9.919 109.505ZM96 25.0001C96 22.2386 93.7614 20.0001 91 20.0001V22.0001C92.6569 22.0001 94 23.3432 94 25.0001H96ZM96 105V25.0001H94V105H96ZM91 110C93.7614 110 96 107.761 96 105H94C94 106.657 92.6569 108 91 108V110ZM81.5 110H91V108H81.5V110ZM76.5 105C76.5 107.761 78.7386 110 81.5 110V108C79.8431 108 78.5 106.657 78.5 105H76.5ZM76.5 25.0001V105H78.5V25.0001H76.5ZM81.5 20.0001C78.7386 20.0001 76.5 22.2386 76.5 25.0001H78.5C78.5 23.3432 79.8431 22.0001 81.5 22.0001V20.0001ZM91 20.0001H81.5V22.0001H91V20.0001ZM66.0823 60.8571C69.0166 62.8397 69.0165 67.1604 66.0823 69.143L67.202 70.8002C71.31 68.0245 71.31 61.9756 67.202 59.1999L66.0823 60.8571ZM-1 103.705C-1 109.315 5.27014 112.646 9.919 109.505L8.79928 107.848C5.47867 110.091 1 107.712 1 103.705H-1ZM1 26.2953C1 22.2878 5.47868 19.9087 8.7993 22.1524L9.91901 20.4952C5.27015 17.3541 -1 20.6848 -1 26.2953H1Z" fill="url(#paint1_linear_696_871)" fill-opacity="0.6" mask="url(#path-3-inside-2_696_871)" />
	<mask id="path-5-inside-3_696_871" fill="white">
		<path fill-rule="evenodd" clip-rule="evenodd" d="M49.9746 104.882C45.1151 108.165 42.6854 109.807 40.6684 109.695C38.9115 109.598 37.2859 108.734 36.2217 107.333C35 105.724 35 102.792 35 96.9272V33.0722C35 27.2074 35 24.275 36.2217 22.6662C37.2859 21.2649 38.9115 20.4014 40.6684 20.3042C42.6854 20.1925 45.1151 21.8343 49.9747 25.1177L97.2274 57.0453C101.17 59.7094 103.142 61.0415 103.831 62.7151C104.434 64.1786 104.434 65.8209 103.831 67.2844C103.142 68.958 101.17 70.29 97.2274 72.9542L49.9746 104.882ZM126 20.9997C128.209 20.9997 130 22.7906 130 24.9997V105C130 107.209 128.209 109 126 109H116.5C114.291 109 112.5 107.209 112.5 105V24.9997C112.5 22.7906 114.291 20.9997 116.5 20.9997H126Z" />
	</mask>
	<path fill-rule="evenodd" clip-rule="evenodd" d="M49.9746 104.882C45.1151 108.165 42.6854 109.807 40.6684 109.695C38.9115 109.598 37.2859 108.734 36.2217 107.333C35 105.724 35 102.792 35 96.9272V33.0722C35 27.2074 35 24.275 36.2217 22.6662C37.2859 21.2649 38.9115 20.4014 40.6684 20.3042C42.6854 20.1925 45.1151 21.8343 49.9747 25.1177L97.2274 57.0453C101.17 59.7094 103.142 61.0415 103.831 62.7151C104.434 64.1786 104.434 65.8209 103.831 67.2844C103.142 68.958 101.17 70.29 97.2274 72.9542L49.9746 104.882ZM126 20.9997C128.209 20.9997 130 22.7906 130 24.9997V105C130 107.209 128.209 109 126 109H116.5C114.291 109 112.5 107.209 112.5 105V24.9997C112.5 22.7906 114.291 20.9997 116.5 20.9997H126Z" fill="url(#paint2_linear_696_871)" />
	<path d="M103.831 62.7151L102.906 63.0959L103.831 62.7151ZM97.2274 72.9542L96.6675 72.1256L97.2274 72.9542ZM103.831 67.2844L102.906 66.9036L103.831 67.2844ZM36.2217 107.333L37.0181 106.728L36.2217 107.333ZM49.9746 104.882L50.5345 105.71L49.9746 104.882ZM40.6684 109.695L40.6132 110.694L40.6684 109.695ZM34 33.0722V96.9272H36V33.0722H34ZM97.7873 56.2167L50.5345 24.2891L49.4148 25.9463L96.6675 57.8739L97.7873 56.2167ZM50.5345 105.71L97.7872 73.7828L96.6675 72.1256L49.4148 104.053L50.5345 105.71ZM131 24.9997C131 22.2383 128.761 19.9997 126 19.9997V21.9997C127.657 21.9997 129 23.3429 129 24.9997H131ZM131 105V24.9997H129V105H131ZM126 110C128.761 110 131 107.761 131 105H129C129 106.657 127.657 108 126 108V110ZM116.5 110H126V108H116.5V110ZM111.5 105C111.5 107.761 113.739 110 116.5 110V108C114.843 108 113.5 106.657 113.5 105H111.5ZM111.5 24.9997V105H113.5V24.9997H111.5ZM116.5 19.9997C113.739 19.9997 111.5 22.2383 111.5 24.9997H113.5C113.5 23.3429 114.843 21.9997 116.5 21.9997V19.9997ZM126 19.9997H116.5V21.9997H126V19.9997ZM96.6675 57.8739C98.6549 59.2166 100.088 60.1865 101.117 61.0262C102.143 61.8643 102.656 62.488 102.906 63.0959L104.756 62.3343C104.317 61.2686 103.499 60.3894 102.382 59.4771C101.267 58.5663 99.7429 57.538 97.7873 56.2167L96.6675 57.8739ZM97.7872 73.7828C99.7429 72.4614 101.266 71.4331 102.382 70.5224C103.499 69.61 104.317 68.7309 104.756 67.6651L102.906 66.9036C102.656 67.5115 102.143 68.1351 101.117 68.9732C100.088 69.813 98.6549 70.7828 96.6675 72.1256L97.7872 73.7828ZM102.906 63.0959C103.409 64.3154 103.409 65.684 102.906 66.9036L104.756 67.6651C105.459 65.9577 105.459 64.0417 104.756 62.3343L102.906 63.0959ZM34 96.9272C34 99.8398 33.999 102.094 34.1569 103.817C34.3138 105.531 34.6386 106.902 35.4253 107.938L37.0181 106.728C36.5831 106.156 36.2971 105.256 36.1485 103.635C36.001 102.024 36 99.8795 36 96.9272H34ZM49.4148 104.053C46.9685 105.706 45.1909 106.906 43.7736 107.685C42.347 108.47 41.4419 108.737 40.7237 108.697L40.6132 110.694C41.9119 110.766 43.2302 110.267 44.7375 109.438C46.2542 108.604 48.1212 107.341 50.5345 105.71L49.4148 104.053ZM35.4253 107.938C36.6669 109.573 38.5635 110.58 40.6132 110.694L40.7237 108.697C39.2596 108.616 37.9049 107.896 37.0181 106.728L35.4253 107.938ZM36 33.0722C36 30.1199 36.001 27.9752 36.1485 26.3644C36.2971 24.743 36.5831 23.8438 37.0181 23.271L35.4253 22.0615C34.6386 23.0974 34.3138 24.4688 34.1569 26.182C33.999 27.9057 34 30.1596 34 33.0722H36ZM50.5345 24.2891C48.1212 22.6585 46.2542 21.3958 44.7375 20.5616C43.2302 19.7325 41.912 19.2338 40.6132 19.3057L40.7237 21.3026C41.4419 21.2629 42.347 21.5293 43.7736 22.314C45.1909 23.0936 46.9686 24.2935 49.4148 25.9463L50.5345 24.2891ZM37.0181 23.271C37.9049 22.1033 39.2596 21.3837 40.7237 21.3026L40.6132 19.3057C38.5635 19.4191 36.6669 20.4266 35.4253 22.0615L37.0181 23.271Z" fill="url(#paint3_linear_696_871)" fill-opacity="0.6" mask="url(#path-5-inside-3_696_871)" />
	<defs>
		<linearGradient id="paint0_linear_696_871" x1="28" y1="13.7251" x2="70.0058" y2="82.0541" gradientUnits="userSpaceOnUse">
			<stop stop-color="white" />
			<stop offset="1" stop-color="white" stop-opacity="0" />
		</linearGradient>
		<linearGradient id="paint1_linear_696_871" x1="-7" y1="13.7094" x2="35.025" y2="82.048" gradientUnits="userSpaceOnUse">
			<stop stop-color="white" />
			<stop offset="1" stop-color="white" stop-opacity="0" />
		</linearGradient>
		<linearGradient id="paint2_linear_696_871" x1="82.5" y1="20.2988" x2="82.5" y2="109.701" gradientUnits="userSpaceOnUse">
			<stop stop-color="white" stop-opacity="0.4" />
			<stop offset="0.5" stop-color="white" stop-opacity="0.1" />
			<stop offset="1" stop-color="white" stop-opacity="0" />
		</linearGradient>
		<linearGradient id="paint3_linear_696_871" x1="28" y1="13.7251" x2="62.8044" y2="55.1436" gradientUnits="userSpaceOnUse">
			<stop stop-color="white" />
			<stop offset="1" stop-color="white" stop-opacity="0" />
		</linearGradient>
	</defs>
</svg>
