<svg xmlns="http://www.w3.org/2000/svg" version="1.1" width="24" height="24" viewBox="0 0 400 216" fill-rule="evenodd" clip-rule="evenodd" xmlns:xlink="http://www.w3.org/1999/xlink">
	<path style="opacity:0.984" fill="#6cd591" d="M 14.5,-0.5 C 20.1667,-0.5 25.8333,-0.5 31.5,-0.5C 89.9675,7.73212 148.634,15.5655 207.5,23C 216.983,25.427 222.15,31.5937 223,41.5C 223.667,50.5 223.667,59.5 223,68.5C 197.135,89.2966 191.468,114.63 206,144.5C 210.311,151.311 215.811,156.978 222.5,161.5C 225.316,172.959 222.65,182.792 214.5,191C 211.754,192.75 208.754,193.75 205.5,194C 153.966,200.767 102.633,207.934 51.5,215.5C 45.8333,215.5 40.1667,215.5 34.5,215.5C 26.7253,212.889 21.8919,207.556 20,199.5C 13.5538,142.306 6.72044,85.3058 -0.5,28.5C -0.5,23.5 -0.5,18.5 -0.5,13.5C 2.56146,6.77236 7.56146,2.1057 14.5,-0.5 Z M 54.5,43.5 C 62.1667,43.5 69.8333,43.5 77.5,43.5C 77.5,53.8333 77.5,64.1667 77.5,74.5C 93.8333,74.5 110.167,74.5 126.5,74.5C 133.312,94.4379 140.812,114.105 149,133.5C 157.442,114.282 165.609,94.9487 173.5,75.5C 181.472,74.5023 189.472,74.169 197.5,74.5C 185.589,102.825 173.255,130.992 160.5,159C 152.147,159.832 143.813,159.665 135.5,158.5C 126.593,136.609 117.593,114.776 108.5,93C 98.172,92.5002 87.8387,92.3335 77.5,92.5C 77.0866,107.217 77.5866,121.884 79,136.5C 80.1094,138.815 81.9427,140.315 84.5,141C 89.8229,141.499 95.1563,141.666 100.5,141.5C 100.5,147.5 100.5,153.5 100.5,159.5C 88.93,160.294 77.5967,159.128 66.5,156C 59.3643,151.513 55.5309,145.013 55,136.5C 54.5001,121.837 54.3334,107.17 54.5,92.5C 49.5,92.5 44.5,92.5 39.5,92.5C 39.5,86.5 39.5,80.5 39.5,74.5C 44.5,74.5 49.5,74.5 54.5,74.5C 54.5,64.1667 54.5,53.8333 54.5,43.5 Z" />
	<path style="opacity:0.953" fill="#fefffe" d="M 271.5,40.5 C 279.833,40.5 288.167,40.5 296.5,40.5C 296.5,79.8333 296.5,119.167 296.5,158.5C 276.464,158.911 256.464,158.411 236.5,157C 216.331,150.204 206.331,136.037 206.5,114.5C 206.244,96.1573 214.244,82.9907 230.5,75C 233.101,74.0797 235.768,73.413 238.5,73C 249.495,72.5002 260.495,72.3335 271.5,72.5C 271.5,61.8333 271.5,51.1667 271.5,40.5 Z M 248.5,91.5 C 256.167,91.5 263.833,91.5 271.5,91.5C 271.5,107.5 271.5,123.5 271.5,139.5C 263.107,139.83 254.773,139.33 246.5,138C 236.61,133.401 231.943,125.568 232.5,114.5C 232.463,102.902 237.796,95.2356 248.5,91.5 Z" />
	<path style="opacity:0.941" fill="#fefffe" d="M 307.5,40.5 C 316.167,40.5 324.833,40.5 333.5,40.5C 333.5,51.1667 333.5,61.8333 333.5,72.5C 344.172,72.3335 354.839,72.5002 365.5,73C 387.387,77.7217 398.387,91.3884 398.5,114C 397.8,139.694 384.8,154.361 359.5,158C 342.17,158.5 324.837,158.667 307.5,158.5C 307.5,119.167 307.5,79.8333 307.5,40.5 Z M 333.5,91.5 C 341.174,91.3336 348.841,91.5003 356.5,92C 368.214,95.0611 373.547,102.728 372.5,115C 372.624,128.789 365.958,136.789 352.5,139C 346.175,139.5 339.842,139.666 333.5,139.5C 333.5,123.5 333.5,107.5 333.5,91.5 Z" />
</svg>
